<?xml version="1.0" encoding="iso-8859-1"?>
<!-- Uploaded to: SVG Repo, www.svgrepo.com, Generator: SVG Repo Mixer Tools -->
<!DOCTYPE svg PUBLIC "-//W3C//DTD SVG 1.1//EN" "http://www.w3.org/Graphics/SVG/1.1/DTD/svg11.dtd">
<svg fill="#000000" version="1.1" id="Capa_1" xmlns="http://www.w3.org/2000/svg" xmlns:xlink="http://www.w3.org/1999/xlink" 
	 width="800px" height="800px" viewBox="0 0 32 32" xml:space="preserve">
<g>
	<g>
		<path d="M15.418,8.627c-0.173-1.781,1.318-2.25,0.585-3.73c1.765,1.353,0.289,3.951,0.289,3.951s1.672-0.92,1.745-2.797
			c0.07-1.876-2.062-3.043-2.876-3.608C14.348,1.877,15.054,0,15.054,0s-1.07,1.204-1.083,2.503
			c-0.012,1.299,0.228,1.915,0.745,2.758C15.233,6.103,15.054,7.078,15.418,8.627z"/>
		<path d="M13.975,12.861h1.998h0.055h1.998l1.455-2.948l-1.646,0.001c0.015-0.01,0.026-0.02,0.041-0.03
			c0.07-0.051,0.14-0.106,0.209-0.162c0.069-0.056,0.146-0.114,0.217-0.175c0.146-0.117,0.291-0.254,0.436-0.387l0.055-0.052
			l0.052-0.054l0.022-0.027l0.094-0.108c0.026-0.026,0.074-0.092,0.113-0.153s0.08-0.123,0.112-0.184
			c0.053-0.119,0.11-0.234,0.137-0.358c0.037-0.121,0.056-0.241,0.063-0.359c0.014-0.233-0.012-0.451-0.062-0.637
			c-0.045-0.189-0.113-0.35-0.18-0.492c-0.139-0.28-0.281-0.481-0.378-0.627c-0.044-0.073-0.091-0.131-0.111-0.173
			c-0.026-0.042-0.04-0.064-0.04-0.064s-0.01,0.024-0.025,0.071c-0.014,0.049-0.035,0.12-0.049,0.213
			c-0.011,0.09-0.026,0.202-0.031,0.325C18.502,6.6,18.496,6.734,18.49,6.88c-0.008,0.14-0.013,0.286-0.033,0.426
			c-0.013,0.141-0.045,0.274-0.084,0.396s-0.102,0.223-0.162,0.325L18.166,8.08c-0.014,0.018-0.017,0.033-0.059,0.074L18.01,8.259
			l-0.008,0.007l-0.004,0.005l-0.013,0.01l-0.051,0.048c-0.134,0.132-0.267,0.262-0.397,0.401c-0.131,0.133-0.259,0.281-0.377,0.426
			c-0.121,0.146-0.233,0.304-0.328,0.459c-0.059,0.104-0.109,0.201-0.155,0.301H16h-0.294c-0.226-0.349-0.507-0.708-0.801-1.074
			c-0.159-0.197-0.316-0.396-0.47-0.597c-0.148-0.2-0.299-0.403-0.414-0.604c-0.128-0.212-0.211-0.382-0.267-0.584
			c-0.029-0.099-0.046-0.205-0.066-0.311c-0.013-0.108-0.024-0.218-0.028-0.33c-0.021-0.448,0.034-0.913,0.065-1.329
			c0.034-0.416,0.045-0.795-0.025-1.063c-0.03-0.135-0.09-0.232-0.141-0.288c-0.048-0.051-0.082-0.063-0.081-0.067
			c-0.002,0,0.016,0.036,0.023,0.101c0.01,0.059-0.001,0.149-0.03,0.257c-0.063,0.216-0.22,0.512-0.391,0.894
			c-0.17,0.383-0.365,0.857-0.44,1.442c-0.037,0.29-0.041,0.612,0.024,0.94c0.032,0.165,0.077,0.331,0.145,0.49l0.053,0.119
			l0.053,0.107c0.027,0.056,0.073,0.136,0.114,0.208c0.166,0.274,0.348,0.513,0.543,0.73c0.19,0.221,0.394,0.413,0.592,0.591
			c0.149,0.135,0.294,0.251,0.438,0.367L12.52,9.913L13.975,12.861z M17.988,8.281l-0.003,0.004l-0.004,0.003
			C17.985,8.285,17.985,8.285,17.988,8.281z"/>
		<path d="M12.861,14.72h1.117l1.194,14.755c-0.568,0.229-0.787,0.715-0.787,1.053c0,0.457,1.519,1.473,1.519,1.473
			s1.547-1.148,1.563-1.54c0.011-0.269-0.205-0.687-0.696-0.927c0.13-1.691,1.202-12.725,1.405-14.813h0.815l0.021-1.368h-6.129
			L12.861,14.72z"/>
	</g>
</g>
</svg>